<?xml version="1.0" encoding="iso-8859-1"?>
<!-- Generator: Adobe Illustrator 19.0.0, SVG Export Plug-In . SVG Version: 6.00 Build 0)  -->
<svg version="1.1" id="Capa_1" xmlns="http://www.w3.org/2000/svg" xmlns:xlink="http://www.w3.org/1999/xlink" x="0px" y="0px"
	 viewBox="0 0 512 512" style="enable-background:new 0 0 512 512;" xml:space="preserve">
<polygon style="fill:#1F3B63;" points="343.775,439.004 256.003,454.531 168.221,439.004 172.923,409.747 176.277,388.849 
	268.981,369.864 335.718,388.849 339.073,409.747 "/>
<polygon style="fill:#152C49;" points="339.073,409.747 172.923,409.747 176.277,388.849 268.981,369.864 335.718,388.849 "/>
<path style="fill:#1F3B63;" d="M477.512,388.849H34.488C15.44,388.849,0,373.408,0,354.36V76.431
	c0-19.047,15.44-34.488,34.488-34.488h443.024c19.047,0,34.488,15.44,34.488,34.488v277.93
	C512,373.408,496.56,388.849,477.512,388.849z"/>
<path style="fill:#25C2CE;" d="M480.656,76.435v277.922c0,1.735-1.411,3.145-3.145,3.145H34.485c-1.724,0-3.135-1.411-3.135-3.145
	V76.435c0-1.735,1.411-3.145,3.135-3.145h443.026C479.246,73.29,480.656,74.701,480.656,76.435z"/>
<path style="fill:#3DDCE0;" d="M480.656,76.435v277.922c0,1.735-1.411,3.145-3.145,3.145H233.632L306.513,73.29h170.998
	C479.246,73.29,480.656,74.701,480.656,76.435z"/>
<g>
	<path style="fill:#FFFFFF;" d="M60.511,107.808l-2.03,1.26c-0.63,0.42-1.26,0.56-1.75,0.56c-2.03,0-3.43-2.17-3.43-4.341
		c0-1.47,0.63-2.87,2.03-3.71l9.241-5.601c0.56-0.35,1.26-0.49,2.03-0.49c2.24,0,4.831,1.33,4.831,3.43v44.526
		c0,2.24-2.73,3.36-5.461,3.36c-2.73,0-5.461-1.12-5.461-3.36C60.511,143.444,60.511,107.808,60.511,107.808z"/>
	<path style="fill:#FFFFFF;" d="M93.321,107.808l-2.03,1.26c-0.63,0.42-1.26,0.56-1.75,0.56c-2.03,0-3.43-2.17-3.43-4.341
		c0-1.47,0.63-2.87,2.03-3.71l9.241-5.601c0.56-0.35,1.26-0.49,2.03-0.49c2.24,0,4.831,1.33,4.831,3.43v44.526
		c0,2.24-2.73,3.36-5.461,3.36s-5.461-1.12-5.461-3.36C93.321,143.444,93.321,107.808,93.321,107.808z"/>
	<path style="fill:#FFFFFF;" d="M121.791,130.701v-18.552c0-12.041,7.491-16.523,17.152-16.523c9.661,0,17.222,4.481,17.222,16.523
		v18.552c0,12.041-7.561,16.522-17.222,16.522C129.282,147.223,121.791,142.742,121.791,130.701z M145.244,112.149
		c0-4.831-2.38-7.001-6.301-7.001s-6.231,2.17-6.231,7.001v18.552c0,4.831,2.31,7.001,6.231,7.001s6.301-2.17,6.301-7.001V112.149z"
		/>
	<path style="fill:#FFFFFF;" d="M172.873,130.701v-18.552c0-12.041,7.491-16.523,17.152-16.523c9.661,0,17.222,4.481,17.222,16.523
		v18.552c0,12.041-7.561,16.522-17.222,16.522C180.364,147.223,172.873,142.742,172.873,130.701z M196.326,112.149
		c0-4.831-2.38-7.001-6.301-7.001s-6.231,2.17-6.231,7.001v18.552c0,4.831,2.31,7.001,6.231,7.001s6.301-2.17,6.301-7.001V112.149z"
		/>
	<path style="fill:#FFFFFF;" d="M228.295,107.808l-2.03,1.26c-0.63,0.42-1.26,0.56-1.75,0.56c-2.03,0-3.43-2.17-3.43-4.341
		c0-1.47,0.63-2.87,2.03-3.71l9.241-5.601c0.56-0.35,1.26-0.49,2.03-0.49c2.24,0,4.831,1.33,4.831,3.43v44.526
		c0,2.24-2.73,3.36-5.461,3.36c-2.73,0-5.461-1.12-5.461-3.36L228.295,107.808L228.295,107.808z"/>
	<path style="fill:#FFFFFF;" d="M256.765,130.701v-18.552c0-12.041,7.491-16.523,17.152-16.523c9.661,0,17.222,4.481,17.222,16.523
		v18.552c0,12.041-7.561,16.522-17.222,16.522C264.256,147.223,256.765,142.742,256.765,130.701z M280.219,112.149
		c0-4.831-2.38-7.001-6.301-7.001s-6.231,2.17-6.231,7.001v18.552c0,4.831,2.31,7.001,6.231,7.001s6.301-2.17,6.301-7.001V112.149z"
		/>
	<path style="fill:#FFFFFF;" d="M312.187,107.808l-2.03,1.26c-0.631,0.42-1.26,0.56-1.75,0.56c-2.03,0-3.43-2.17-3.43-4.341
		c0-1.47,0.63-2.87,2.029-3.71l9.242-5.601c0.56-0.35,1.26-0.49,2.03-0.49c2.24,0,4.831,1.33,4.831,3.43v44.526
		c0,2.24-2.73,3.36-5.462,3.36c-2.731,0-5.461-1.12-5.461-3.36v-35.635H312.187z"/>
	<path style="fill:#FFFFFF;" d="M340.658,130.701v-18.552c0-12.041,7.491-16.523,17.152-16.523c9.661,0,17.222,4.481,17.222,16.523
		v18.552c0,12.041-7.561,16.522-17.222,16.522C348.148,147.223,340.658,142.742,340.658,130.701z M364.11,112.149
		c0-4.831-2.38-7.001-6.301-7.001s-6.231,2.17-6.231,7.001v18.552c0,4.831,2.31,7.001,6.231,7.001s6.301-2.17,6.301-7.001V112.149z"
		/>
	<path style="fill:#FFFFFF;" d="M391.738,130.701v-18.552c0-12.041,7.491-16.523,17.152-16.523s17.222,4.481,17.222,16.523v18.552
		c0,12.041-7.561,16.522-17.222,16.522S391.738,142.742,391.738,130.701z M415.192,112.149c0-4.831-2.38-7.001-6.301-7.001
		s-6.231,2.17-6.231,7.001v18.552c0,4.831,2.31,7.001,6.231,7.001s6.301-2.17,6.301-7.001V112.149z"/>
	<path style="fill:#FFFFFF;" d="M447.162,107.808l-2.03,1.26c-0.631,0.42-1.26,0.56-1.75,0.56c-2.03,0-3.43-2.17-3.43-4.341
		c0-1.47,0.63-2.87,2.029-3.71l9.242-5.601c0.56-0.35,1.26-0.49,2.03-0.49c2.24,0,4.831,1.33,4.831,3.43v44.526
		c0,2.24-2.73,3.36-5.462,3.36c-2.731,0-5.461-1.12-5.461-3.36v-35.635H447.162z"/>
	<path style="fill:#FFFFFF;" d="M56.171,193.395v-18.552c0-12.041,7.491-16.523,17.152-16.523c9.661,0,17.222,4.481,17.222,16.523
		v18.552c0,12.041-7.561,16.522-17.222,16.522S56.171,205.436,56.171,193.395z M79.623,174.843c0-4.831-2.38-7.001-6.301-7.001
		s-6.231,2.17-6.231,7.001v18.552c0,4.831,2.31,7.001,6.231,7.001s6.301-2.17,6.301-7.001V174.843z"/>
	<path style="fill:#FFFFFF;" d="M105.222,193.395v-18.552c0-12.041,7.491-16.523,17.152-16.523s17.222,4.481,17.222,16.523v18.552
		c0,12.041-7.561,16.522-17.222,16.522S105.222,205.436,105.222,193.395z M128.675,174.843c0-4.831-2.38-7.001-6.301-7.001
		s-6.231,2.17-6.231,7.001v18.552c0,4.831,2.31,7.001,6.231,7.001s6.301-2.17,6.301-7.001V174.843z"/>
	<path style="fill:#FFFFFF;" d="M154.274,193.395v-18.552c0-12.041,7.491-16.523,17.152-16.523s17.222,4.481,17.222,16.523v18.552
		c0,12.041-7.561,16.522-17.222,16.522S154.274,205.436,154.274,193.395z M177.727,174.843c0-4.831-2.38-7.001-6.301-7.001
		s-6.231,2.17-6.231,7.001v18.552c0,4.831,2.31,7.001,6.231,7.001s6.301-2.17,6.301-7.001V174.843z"/>
	<path style="fill:#FFFFFF;" d="M203.326,193.395v-18.552c0-12.041,7.491-16.523,17.152-16.523c9.661,0,17.222,4.481,17.222,16.523
		v18.552c0,12.041-7.561,16.522-17.222,16.522C210.817,209.917,203.326,205.436,203.326,193.395z M226.778,174.843
		c0-4.831-2.38-7.001-6.301-7.001s-6.231,2.17-6.231,7.001v18.552c0,4.831,2.31,7.001,6.231,7.001s6.301-2.17,6.301-7.001V174.843z"
		/>
	<path style="fill:#FFFFFF;" d="M252.377,193.395v-18.552c0-12.041,7.49-16.523,17.153-16.523c9.661,0,17.221,4.481,17.221,16.523
		v18.552c0,12.041-7.56,16.522-17.221,16.522C259.867,209.917,252.377,205.436,252.377,193.395z M275.83,174.843
		c0-4.831-2.379-7.001-6.3-7.001c-3.922,0-6.232,2.17-6.232,7.001v18.552c0,4.831,2.31,7.001,6.232,7.001c3.92,0,6.3-2.17,6.3-7.001
		V174.843z"/>
	<path style="fill:#FFFFFF;" d="M305.77,170.502l-2.03,1.26c-0.631,0.42-1.26,0.56-1.75,0.56c-2.03,0-3.43-2.17-3.43-4.341
		c0-1.47,0.63-2.87,2.029-3.71l9.242-5.601c0.56-0.35,1.26-0.49,2.03-0.49c2.24,0,4.831,1.33,4.831,3.43v44.526
		c0,2.24-2.73,3.36-5.462,3.36s-5.461-1.12-5.461-3.36v-35.635H305.77z"/>
	<path style="fill:#FFFFFF;" d="M332.21,193.395v-18.552c0-12.041,7.491-16.523,17.152-16.523s17.222,4.481,17.222,16.523v18.552
		c0,12.041-7.561,16.522-17.222,16.522S332.21,205.436,332.21,193.395z M355.662,174.843c0-4.831-2.38-7.001-6.301-7.001
		s-6.231,2.17-6.231,7.001v18.552c0,4.831,2.31,7.001,6.231,7.001s6.301-2.17,6.301-7.001V174.843z"/>
	<path style="fill:#FFFFFF;" d="M385.601,170.502l-2.03,1.26c-0.631,0.42-1.26,0.56-1.75,0.56c-2.03,0-3.43-2.17-3.43-4.341
		c0-1.47,0.63-2.87,2.029-3.71l9.242-5.601c0.56-0.35,1.26-0.49,2.03-0.49c2.24,0,4.831,1.33,4.831,3.43v44.526
		c0,2.24-2.73,3.36-5.462,3.36c-2.731,0-5.461-1.12-5.461-3.36v-35.635H385.601z"/>
	<path style="fill:#FFFFFF;" d="M416.381,170.502l-2.03,1.26c-0.631,0.42-1.26,0.56-1.75,0.56c-2.03,0-3.43-2.17-3.43-4.341
		c0-1.47,0.63-2.87,2.029-3.71l9.242-5.601c0.56-0.35,1.26-0.49,2.03-0.49c2.24,0,4.831,1.33,4.831,3.43v44.526
		c0,2.24-2.73,3.36-5.462,3.36c-2.731,0-5.461-1.12-5.461-3.36v-35.635H416.381z"/>
	<path style="fill:#FFFFFF;" d="M447.162,170.502l-2.03,1.26c-0.631,0.42-1.26,0.56-1.75,0.56c-2.03,0-3.43-2.17-3.43-4.341
		c0-1.47,0.63-2.87,2.029-3.71l9.242-5.601c0.56-0.35,1.26-0.49,2.03-0.49c2.24,0,4.831,1.33,4.831,3.43v44.526
		c0,2.24-2.73,3.36-5.462,3.36c-2.731,0-5.461-1.12-5.461-3.36v-35.635H447.162z"/>
	<path style="fill:#FFFFFF;" d="M60.511,233.196l-2.03,1.26c-0.63,0.42-1.26,0.56-1.75,0.56c-2.03,0-3.43-2.17-3.43-4.341
		c0-1.47,0.63-2.87,2.03-3.71l9.241-5.601c0.56-0.35,1.26-0.49,2.03-0.49c2.24,0,4.831,1.33,4.831,3.43v44.526
		c0,2.24-2.73,3.36-5.461,3.36c-2.73,0-5.461-1.12-5.461-3.36C60.511,268.831,60.511,233.196,60.511,233.196z"/>
	<path style="fill:#FFFFFF;" d="M93.321,233.196l-2.03,1.26c-0.63,0.42-1.26,0.56-1.75,0.56c-2.03,0-3.43-2.17-3.43-4.341
		c0-1.47,0.63-2.87,2.03-3.71l9.241-5.601c0.56-0.35,1.26-0.49,2.03-0.49c2.24,0,4.831,1.33,4.831,3.43v44.526
		c0,2.24-2.73,3.36-5.461,3.36s-5.461-1.12-5.461-3.36C93.321,268.831,93.321,233.196,93.321,233.196z"/>
	<path style="fill:#FFFFFF;" d="M121.791,256.089v-18.552c0-12.041,7.491-16.523,17.152-16.523c9.661,0,17.222,4.481,17.222,16.523
		v18.552c0,12.041-7.561,16.522-17.222,16.522C129.282,272.611,121.791,268.13,121.791,256.089z M145.244,237.537
		c0-4.831-2.38-7.001-6.301-7.001s-6.231,2.17-6.231,7.001v18.552c0,4.831,2.31,7.001,6.231,7.001s6.301-2.17,6.301-7.001V237.537z"
		/>
	<path style="fill:#FFFFFF;" d="M177.214,233.196l-2.03,1.26c-0.63,0.42-1.26,0.56-1.75,0.56c-2.03,0-3.43-2.17-3.43-4.341
		c0-1.47,0.63-2.87,2.03-3.71l9.241-5.601c0.56-0.35,1.26-0.49,2.03-0.49c2.24,0,4.831,1.33,4.831,3.43v44.526
		c0,2.24-2.73,3.36-5.461,3.36s-5.461-1.12-5.461-3.36L177.214,233.196L177.214,233.196z"/>
	<path style="fill:#FFFFFF;" d="M205.683,256.089v-18.552c0-12.041,7.491-16.523,17.152-16.523c9.661,0,17.222,4.481,17.222,16.523
		v18.552c0,12.041-7.561,16.522-17.222,16.522C213.174,272.611,205.683,268.13,205.683,256.089z M229.137,237.537
		c0-4.831-2.38-7.001-6.301-7.001c-3.92,0-6.231,2.17-6.231,7.001v18.552c0,4.831,2.31,7.001,6.231,7.001
		c3.92,0,6.301-2.17,6.301-7.001V237.537z"/>
	<path style="fill:#FFFFFF;" d="M256.765,256.089v-18.552c0-12.041,7.491-16.523,17.152-16.523c9.661,0,17.222,4.481,17.222,16.523
		v18.552c0,12.041-7.561,16.522-17.222,16.522C264.256,272.611,256.765,268.13,256.765,256.089z M280.219,237.537
		c0-4.831-2.38-7.001-6.301-7.001s-6.231,2.17-6.231,7.001v18.552c0,4.831,2.31,7.001,6.231,7.001s6.301-2.17,6.301-7.001V237.537z"
		/>
	<path style="fill:#FFFFFF;" d="M312.187,233.196l-2.03,1.26c-0.631,0.42-1.26,0.56-1.75,0.56c-2.03,0-3.43-2.17-3.43-4.341
		c0-1.47,0.63-2.87,2.029-3.71l9.242-5.601c0.56-0.35,1.26-0.49,2.03-0.49c2.24,0,4.831,1.33,4.831,3.43v44.526
		c0,2.24-2.73,3.36-5.462,3.36c-2.731,0-5.461-1.12-5.461-3.36v-35.635H312.187z"/>
	<path style="fill:#FFFFFF;" d="M340.658,256.089v-18.552c0-12.041,7.491-16.523,17.152-16.523c9.661,0,17.222,4.481,17.222,16.523
		v18.552c0,12.041-7.561,16.522-17.222,16.522C348.148,272.611,340.658,268.13,340.658,256.089z M364.11,237.537
		c0-4.831-2.38-7.001-6.301-7.001s-6.231,2.17-6.231,7.001v18.552c0,4.831,2.31,7.001,6.231,7.001s6.301-2.17,6.301-7.001V237.537z"
		/>
	<path style="fill:#FFFFFF;" d="M391.738,256.089v-18.552c0-12.041,7.491-16.523,17.152-16.523s17.222,4.481,17.222,16.523v18.552
		c0,12.041-7.561,16.522-17.222,16.522S391.738,268.13,391.738,256.089z M415.192,237.537c0-4.831-2.38-7.001-6.301-7.001
		s-6.231,2.17-6.231,7.001v18.552c0,4.831,2.31,7.001,6.231,7.001s6.301-2.17,6.301-7.001V237.537z"/>
	<path style="fill:#FFFFFF;" d="M447.161,233.196l-2.03,1.26c-0.631,0.42-1.26,0.56-1.75,0.56c-2.03,0-3.43-2.17-3.43-4.341
		c0-1.47,0.63-2.87,2.029-3.71l9.242-5.601c0.56-0.35,1.26-0.49,2.03-0.49c2.24,0,4.831,1.33,4.831,3.43v44.526
		c0,2.24-2.73,3.36-5.462,3.36s-5.461-1.12-5.461-3.36v-35.635H447.161z"/>
	<path style="fill:#FFFFFF;" d="M56.394,318.783V300.23c0-12.041,7.491-16.523,17.152-16.523s17.222,4.481,17.222,16.523v18.552
		c0,12.041-7.561,16.522-17.222,16.522S56.394,330.824,56.394,318.783z M79.848,300.23c0-4.831-2.38-7.001-6.301-7.001
		s-6.231,2.17-6.231,7.001v18.552c0,4.831,2.31,7.001,6.231,7.001s6.301-2.17,6.301-7.001V300.23z"/>
	<path style="fill:#FFFFFF;" d="M109.736,295.89l-2.03,1.26c-0.63,0.42-1.26,0.56-1.75,0.56c-2.03,0-3.43-2.17-3.43-4.34
		c0-1.47,0.63-2.87,2.03-3.71l9.241-5.601c0.56-0.35,1.26-0.49,2.03-0.49c2.24,0,4.831,1.33,4.831,3.43v44.526
		c0,2.24-2.73,3.36-5.461,3.36s-5.461-1.12-5.461-3.36C109.736,331.525,109.736,295.89,109.736,295.89z"/>
	<path style="fill:#FFFFFF;" d="M136.126,318.783V300.23c0-12.041,7.491-16.523,17.152-16.523s17.222,4.481,17.222,16.523v18.552
		c0,12.041-7.561,16.522-17.222,16.522S136.126,330.824,136.126,318.783z M159.58,300.23c0-4.831-2.38-7.001-6.301-7.001
		s-6.231,2.17-6.231,7.001v18.552c0,4.831,2.31,7.001,6.231,7.001s6.301-2.17,6.301-7.001V300.23z"/>
	<path style="fill:#FFFFFF;" d="M189.469,295.89l-2.03,1.26c-0.63,0.42-1.26,0.56-1.75,0.56c-2.03,0-3.43-2.17-3.43-4.34
		c0-1.47,0.63-2.87,2.03-3.71l9.241-5.601c0.56-0.35,1.26-0.49,2.03-0.49c2.24,0,4.831,1.33,4.831,3.43v44.526
		c0,2.24-2.73,3.36-5.461,3.36c-2.73,0-5.461-1.12-5.461-3.36L189.469,295.89L189.469,295.89z"/>
	<path style="fill:#FFFFFF;" d="M215.859,318.783V300.23c0-12.041,7.491-16.523,17.152-16.523s17.222,4.481,17.222,16.523v18.552
		c0,12.041-7.561,16.522-17.222,16.522S215.859,330.824,215.859,318.783z M239.312,300.23c0-4.831-2.38-7.001-6.301-7.001
		s-6.231,2.17-6.231,7.001v18.552c0,4.831,2.31,7.001,6.231,7.001s6.301-2.17,6.301-7.001V300.23z"/>
	<path style="fill:#FFFFFF;" d="M269.202,295.89l-2.03,1.26c-0.631,0.42-1.26,0.56-1.75,0.56c-2.03,0-3.43-2.17-3.43-4.34
		c0-1.47,0.63-2.87,2.029-3.71l9.242-5.601c0.56-0.35,1.26-0.49,2.03-0.49c2.24,0,4.831,1.33,4.831,3.43v44.526
		c0,2.24-2.73,3.36-5.462,3.36c-2.731,0-5.461-1.12-5.461-3.36V295.89H269.202z"/>
	<path style="fill:#FFFFFF;" d="M295.592,318.783V300.23c0-12.041,7.491-16.523,17.152-16.523c9.661,0,17.222,4.481,17.222,16.523
		v18.552c0,12.041-7.561,16.522-17.222,16.522C303.083,335.305,295.592,330.824,295.592,318.783z M319.045,300.23
		c0-4.831-2.38-7.001-6.301-7.001s-6.231,2.17-6.231,7.001v18.552c0,4.831,2.31,7.001,6.231,7.001s6.301-2.17,6.301-7.001V300.23z"
		/>
	<path style="fill:#FFFFFF;" d="M348.933,295.89l-2.03,1.26c-0.631,0.42-1.26,0.56-1.75,0.56c-2.03,0-3.43-2.17-3.43-4.34
		c0-1.47,0.63-2.87,2.029-3.71l9.242-5.601c0.56-0.35,1.26-0.49,2.03-0.49c2.24,0,4.831,1.33,4.831,3.43v44.526
		c0,2.24-2.73,3.36-5.462,3.36c-2.731,0-5.461-1.12-5.461-3.36V295.89H348.933z"/>
	<path style="fill:#FFFFFF;" d="M375.323,318.783V300.23c0-12.041,7.491-16.523,17.152-16.523c9.661,0,17.222,4.481,17.222,16.523
		v18.552c0,12.041-7.561,16.522-17.222,16.522C382.814,335.305,375.323,330.824,375.323,318.783z M398.777,300.23
		c0-4.831-2.38-7.001-6.301-7.001s-6.231,2.17-6.231,7.001v18.552c0,4.831,2.31,7.001,6.231,7.001s6.301-2.17,6.301-7.001V300.23z"
		/>
	<path style="fill:#FFFFFF;" d="M424.326,318.783V300.23c0-12.041,7.491-16.523,17.152-16.523s17.222,4.481,17.222,16.523v18.552
		c0,12.041-7.561,16.522-17.222,16.522S424.326,330.824,424.326,318.783z M447.778,300.23c0-4.831-2.38-7.001-6.301-7.001
		s-6.231,2.17-6.231,7.001v18.552c0,4.831,2.31,7.001,6.231,7.001s6.301-2.17,6.301-7.001V300.23z"/>
</g>
<path style="fill:#1F3B63;" d="M399.676,470.057H112.324v-13.142c0-9.892,8.02-17.912,17.912-17.912h251.528
	c9.892,0,17.912,8.02,17.912,17.912L399.676,470.057L399.676,470.057z"/>
<g>
</g>
<g>
</g>
<g>
</g>
<g>
</g>
<g>
</g>
<g>
</g>
<g>
</g>
<g>
</g>
<g>
</g>
<g>
</g>
<g>
</g>
<g>
</g>
<g>
</g>
<g>
</g>
<g>
</g>
</svg>
